<mxfile host="Electron" modified="2023-10-13T09:25:07.191Z" agent="Mozilla/5.0 (Windows NT 10.0; Win64; x64) AppleWebKit/537.36 (KHTML, like Gecko) draw.io/22.0.2 Chrome/114.0.5735.289 Electron/25.8.4 Safari/537.36" etag="WkrQsMzqq2BQEcet8K0v" version="22.0.2" type="device">
  <diagram id="R2lEEEUBdFMjLlhIrx00" name="Page-1">
    <mxGraphModel dx="1941" dy="646" grid="1" gridSize="10" guides="1" tooltips="1" connect="1" arrows="1" fold="1" page="1" pageScale="1" pageWidth="850" pageHeight="1100" math="0" shadow="0" extFonts="Permanent Marker^https://fonts.googleapis.com/css?family=Permanent+Marker">
      <root>
        <mxCell id="0" />
        <mxCell id="1" parent="0" />
        <mxCell id="73ffAHBmO4M_iKyoBpWe-1" value="Czekoladki" style="whiteSpace=wrap;html=1;aspect=fixed;fillColor=#fff2cc;strokeColor=#d6b656;" vertex="1" parent="1">
          <mxGeometry x="140" y="140" width="100" height="100" as="geometry" />
        </mxCell>
        <mxCell id="73ffAHBmO4M_iKyoBpWe-2" value="Zamówienia" style="whiteSpace=wrap;html=1;aspect=fixed;fillColor=#fff2cc;strokeColor=#d6b656;" vertex="1" parent="1">
          <mxGeometry x="425" y="530" width="80" height="80" as="geometry" />
        </mxCell>
        <mxCell id="73ffAHBmO4M_iKyoBpWe-3" value="Artykuły" style="whiteSpace=wrap;html=1;aspect=fixed;fillColor=#fff2cc;strokeColor=#d6b656;" vertex="1" parent="1">
          <mxGeometry x="700" y="455" width="80" height="80" as="geometry" />
        </mxCell>
        <mxCell id="73ffAHBmO4M_iKyoBpWe-4" value="Pudełka" style="whiteSpace=wrap;html=1;aspect=fixed;fillColor=#fff2cc;strokeColor=#d6b656;" vertex="1" parent="1">
          <mxGeometry x="765" y="190" width="80" height="80" as="geometry" />
        </mxCell>
        <mxCell id="73ffAHBmO4M_iKyoBpWe-5" value="Klienci" style="whiteSpace=wrap;html=1;aspect=fixed;fillColor=#fff2cc;strokeColor=#d6b656;" vertex="1" parent="1">
          <mxGeometry x="100" y="420" width="80" height="80" as="geometry" />
        </mxCell>
        <mxCell id="73ffAHBmO4M_iKyoBpWe-7" value="Zawartość" style="whiteSpace=wrap;html=1;aspect=fixed;fillColor=#fff2cc;strokeColor=#d6b656;" vertex="1" parent="1">
          <mxGeometry x="370" y="200" width="80" height="80" as="geometry" />
        </mxCell>
        <mxCell id="73ffAHBmO4M_iKyoBpWe-8" value="Nazwa" style="ellipse;whiteSpace=wrap;html=1;aspect=fixed;fillColor=#dae8fc;strokeColor=#6c8ebf;" vertex="1" parent="1">
          <mxGeometry x="180" y="40" width="60" height="60" as="geometry" />
        </mxCell>
        <mxCell id="73ffAHBmO4M_iKyoBpWe-9" value="Id klienta" style="ellipse;whiteSpace=wrap;html=1;aspect=fixed;fillColor=#dae8fc;strokeColor=#6c8ebf;" vertex="1" parent="1">
          <mxGeometry x="530" y="610" width="65" height="65" as="geometry" />
        </mxCell>
        <mxCell id="73ffAHBmO4M_iKyoBpWe-10" value="Id zamówień" style="ellipse;whiteSpace=wrap;html=1;aspect=fixed;fillColor=#dae8fc;strokeColor=#6c8ebf;" vertex="1" parent="1">
          <mxGeometry x="310" y="602.5" width="70" height="70" as="geometry" />
        </mxCell>
        <mxCell id="73ffAHBmO4M_iKyoBpWe-11" value="Sztuk" style="ellipse;whiteSpace=wrap;html=1;aspect=fixed;fillColor=#d5e8d4;strokeColor=#82b366;" vertex="1" parent="1">
          <mxGeometry x="830" y="505" width="70" height="70" as="geometry" />
        </mxCell>
        <mxCell id="73ffAHBmO4M_iKyoBpWe-12" value="Rodzaj czekolady" style="ellipse;whiteSpace=wrap;html=1;aspect=fixed;fillColor=#dae8fc;strokeColor=#6c8ebf;" vertex="1" parent="1">
          <mxGeometry x="50" y="95" width="60" height="60" as="geometry" />
        </mxCell>
        <mxCell id="73ffAHBmO4M_iKyoBpWe-13" value="&lt;u&gt;Id czekoladki&lt;/u&gt;" style="ellipse;whiteSpace=wrap;html=1;aspect=fixed;fillColor=#dae8fc;strokeColor=#6c8ebf;" vertex="1" parent="1">
          <mxGeometry x="110" y="35" width="60" height="60" as="geometry" />
        </mxCell>
        <mxCell id="73ffAHBmO4M_iKyoBpWe-14" value="Rodzaj orzechów" style="ellipse;whiteSpace=wrap;html=1;aspect=fixed;fillColor=#dae8fc;strokeColor=#6c8ebf;" vertex="1" parent="1">
          <mxGeometry x="20" y="180" width="60" height="60" as="geometry" />
        </mxCell>
        <mxCell id="73ffAHBmO4M_iKyoBpWe-15" value="Rodzaj nadzienia" style="ellipse;whiteSpace=wrap;html=1;aspect=fixed;fillColor=#dae8fc;strokeColor=#6c8ebf;" vertex="1" parent="1">
          <mxGeometry x="50" y="250" width="60" height="60" as="geometry" />
        </mxCell>
        <mxCell id="73ffAHBmO4M_iKyoBpWe-16" value="Opis" style="ellipse;whiteSpace=wrap;html=1;aspect=fixed;fillColor=#dae8fc;strokeColor=#6c8ebf;" vertex="1" parent="1">
          <mxGeometry x="130" y="270" width="45" height="45" as="geometry" />
        </mxCell>
        <mxCell id="73ffAHBmO4M_iKyoBpWe-17" value="Koszt" style="ellipse;whiteSpace=wrap;html=1;aspect=fixed;fillColor=#dae8fc;strokeColor=#6c8ebf;" vertex="1" parent="1">
          <mxGeometry x="190" y="270" width="50" height="50" as="geometry" />
        </mxCell>
        <mxCell id="73ffAHBmO4M_iKyoBpWe-18" value="Masa" style="ellipse;whiteSpace=wrap;html=1;aspect=fixed;fillColor=#dae8fc;strokeColor=#6c8ebf;" vertex="1" parent="1">
          <mxGeometry x="250" y="90" width="50" height="50" as="geometry" />
        </mxCell>
        <mxCell id="73ffAHBmO4M_iKyoBpWe-19" value="" style="endArrow=none;html=1;rounded=0;entryX=0;entryY=1;entryDx=0;entryDy=0;exitX=1;exitY=0;exitDx=0;exitDy=0;" edge="1" parent="1" source="73ffAHBmO4M_iKyoBpWe-15" target="73ffAHBmO4M_iKyoBpWe-1">
          <mxGeometry width="50" height="50" relative="1" as="geometry">
            <mxPoint x="70" y="430" as="sourcePoint" />
            <mxPoint x="120" y="380" as="targetPoint" />
          </mxGeometry>
        </mxCell>
        <mxCell id="73ffAHBmO4M_iKyoBpWe-20" value="" style="endArrow=none;html=1;rounded=0;exitX=0.25;exitY=1;exitDx=0;exitDy=0;" edge="1" parent="1" source="73ffAHBmO4M_iKyoBpWe-1" target="73ffAHBmO4M_iKyoBpWe-16">
          <mxGeometry width="50" height="50" relative="1" as="geometry">
            <mxPoint x="400" y="330" as="sourcePoint" />
            <mxPoint x="450" y="280" as="targetPoint" />
          </mxGeometry>
        </mxCell>
        <mxCell id="73ffAHBmO4M_iKyoBpWe-21" value="" style="endArrow=none;html=1;rounded=0;exitX=0.75;exitY=1;exitDx=0;exitDy=0;entryX=0.5;entryY=0;entryDx=0;entryDy=0;" edge="1" parent="1" source="73ffAHBmO4M_iKyoBpWe-1" target="73ffAHBmO4M_iKyoBpWe-17">
          <mxGeometry width="50" height="50" relative="1" as="geometry">
            <mxPoint x="400" y="330" as="sourcePoint" />
            <mxPoint x="450" y="280" as="targetPoint" />
          </mxGeometry>
        </mxCell>
        <mxCell id="73ffAHBmO4M_iKyoBpWe-22" value="" style="endArrow=none;html=1;rounded=0;exitX=1.023;exitY=0.706;exitDx=0;exitDy=0;exitPerimeter=0;entryX=0;entryY=0.75;entryDx=0;entryDy=0;" edge="1" parent="1" source="73ffAHBmO4M_iKyoBpWe-14" target="73ffAHBmO4M_iKyoBpWe-1">
          <mxGeometry width="50" height="50" relative="1" as="geometry">
            <mxPoint x="400" y="330" as="sourcePoint" />
            <mxPoint x="450" y="280" as="targetPoint" />
          </mxGeometry>
        </mxCell>
        <mxCell id="73ffAHBmO4M_iKyoBpWe-23" value="" style="endArrow=none;html=1;rounded=0;exitX=1;exitY=1;exitDx=0;exitDy=0;entryX=-0.006;entryY=0.386;entryDx=0;entryDy=0;entryPerimeter=0;" edge="1" parent="1" source="73ffAHBmO4M_iKyoBpWe-12" target="73ffAHBmO4M_iKyoBpWe-1">
          <mxGeometry width="50" height="50" relative="1" as="geometry">
            <mxPoint x="400" y="330" as="sourcePoint" />
            <mxPoint x="450" y="280" as="targetPoint" />
          </mxGeometry>
        </mxCell>
        <mxCell id="73ffAHBmO4M_iKyoBpWe-24" value="" style="endArrow=none;html=1;rounded=0;exitX=0.5;exitY=1;exitDx=0;exitDy=0;entryX=0.25;entryY=0;entryDx=0;entryDy=0;" edge="1" parent="1" source="73ffAHBmO4M_iKyoBpWe-13" target="73ffAHBmO4M_iKyoBpWe-1">
          <mxGeometry width="50" height="50" relative="1" as="geometry">
            <mxPoint x="400" y="330" as="sourcePoint" />
            <mxPoint x="450" y="280" as="targetPoint" />
          </mxGeometry>
        </mxCell>
        <mxCell id="73ffAHBmO4M_iKyoBpWe-25" value="" style="endArrow=none;html=1;rounded=0;exitX=0.677;exitY=-0.019;exitDx=0;exitDy=0;exitPerimeter=0;entryX=0.5;entryY=1;entryDx=0;entryDy=0;" edge="1" parent="1" source="73ffAHBmO4M_iKyoBpWe-1" target="73ffAHBmO4M_iKyoBpWe-8">
          <mxGeometry width="50" height="50" relative="1" as="geometry">
            <mxPoint x="190" y="130" as="sourcePoint" />
            <mxPoint x="240" y="80" as="targetPoint" />
          </mxGeometry>
        </mxCell>
        <mxCell id="73ffAHBmO4M_iKyoBpWe-26" value="" style="endArrow=none;html=1;rounded=0;exitX=1;exitY=0;exitDx=0;exitDy=0;entryX=0;entryY=1;entryDx=0;entryDy=0;" edge="1" parent="1" source="73ffAHBmO4M_iKyoBpWe-1" target="73ffAHBmO4M_iKyoBpWe-18">
          <mxGeometry width="50" height="50" relative="1" as="geometry">
            <mxPoint x="400" y="330" as="sourcePoint" />
            <mxPoint x="450" y="280" as="targetPoint" />
            <Array as="points" />
          </mxGeometry>
        </mxCell>
        <mxCell id="73ffAHBmO4M_iKyoBpWe-27" value="Id pudełka" style="ellipse;whiteSpace=wrap;html=1;aspect=fixed;fillColor=#d5e8d4;strokeColor=#82b366;" vertex="1" parent="1">
          <mxGeometry x="820" y="390" width="75" height="75" as="geometry" />
        </mxCell>
        <mxCell id="73ffAHBmO4M_iKyoBpWe-28" value="Id zamówień" style="ellipse;whiteSpace=wrap;html=1;aspect=fixed;fillColor=#d5e8d4;strokeColor=#82b366;" vertex="1" parent="1">
          <mxGeometry x="750" y="365" width="60" height="60" as="geometry" />
        </mxCell>
        <mxCell id="73ffAHBmO4M_iKyoBpWe-29" value="Id pudełka" style="ellipse;whiteSpace=wrap;html=1;aspect=fixed;fillColor=#d5e8d4;strokeColor=#82b366;" vertex="1" parent="1">
          <mxGeometry x="345" y="70" width="80" height="80" as="geometry" />
        </mxCell>
        <mxCell id="73ffAHBmO4M_iKyoBpWe-30" value="Id czekoladki" style="ellipse;whiteSpace=wrap;html=1;aspect=fixed;fillColor=#d5e8d4;strokeColor=#82b366;" vertex="1" parent="1">
          <mxGeometry x="440" y="90" width="70" height="70" as="geometry" />
        </mxCell>
        <mxCell id="73ffAHBmO4M_iKyoBpWe-31" value="Sztuk" style="ellipse;whiteSpace=wrap;html=1;aspect=fixed;fillColor=#d5e8d4;strokeColor=#82b366;" vertex="1" parent="1">
          <mxGeometry x="510" y="150" width="70" height="70" as="geometry" />
        </mxCell>
        <mxCell id="73ffAHBmO4M_iKyoBpWe-32" value="Data realizacji" style="ellipse;whiteSpace=wrap;html=1;aspect=fixed;fillColor=#dae8fc;strokeColor=#6c8ebf;" vertex="1" parent="1">
          <mxGeometry x="425" y="640" width="70" height="70" as="geometry" />
        </mxCell>
        <mxCell id="73ffAHBmO4M_iKyoBpWe-33" value="Id pudełka" style="ellipse;whiteSpace=wrap;html=1;aspect=fixed;fillColor=#dae8fc;strokeColor=#6c8ebf;" vertex="1" parent="1">
          <mxGeometry x="865" y="130" width="70" height="70" as="geometry" />
        </mxCell>
        <mxCell id="73ffAHBmO4M_iKyoBpWe-34" value="Nazwa" style="ellipse;whiteSpace=wrap;html=1;aspect=fixed;fillColor=#dae8fc;strokeColor=#6c8ebf;" vertex="1" parent="1">
          <mxGeometry x="875" y="225" width="70" height="70" as="geometry" />
        </mxCell>
        <mxCell id="73ffAHBmO4M_iKyoBpWe-35" value="Opis" style="ellipse;whiteSpace=wrap;html=1;aspect=fixed;fillColor=#dae8fc;strokeColor=#6c8ebf;" vertex="1" parent="1">
          <mxGeometry x="815" y="300" width="65" height="65" as="geometry" />
        </mxCell>
        <mxCell id="73ffAHBmO4M_iKyoBpWe-36" value="Cena" style="ellipse;whiteSpace=wrap;html=1;aspect=fixed;fillColor=#dae8fc;strokeColor=#6c8ebf;" vertex="1" parent="1">
          <mxGeometry x="680" y="100" width="70" height="70" as="geometry" />
        </mxCell>
        <mxCell id="73ffAHBmO4M_iKyoBpWe-37" value="Stan" style="ellipse;whiteSpace=wrap;html=1;aspect=fixed;fillColor=#dae8fc;strokeColor=#6c8ebf;" vertex="1" parent="1">
          <mxGeometry x="780" y="75" width="70" height="70" as="geometry" />
        </mxCell>
        <mxCell id="73ffAHBmO4M_iKyoBpWe-38" value="Telefon" style="ellipse;whiteSpace=wrap;html=1;aspect=fixed;fillColor=#d5e8d4;strokeColor=#82b366;" vertex="1" parent="1">
          <mxGeometry x="150" y="540" width="70" height="70" as="geometry" />
        </mxCell>
        <mxCell id="73ffAHBmO4M_iKyoBpWe-39" value="Id klienta" style="ellipse;whiteSpace=wrap;html=1;aspect=fixed;fillColor=#d5e8d4;strokeColor=#82b366;" vertex="1" parent="1">
          <mxGeometry x="130" y="340" width="60" height="60" as="geometry" />
        </mxCell>
        <mxCell id="73ffAHBmO4M_iKyoBpWe-40" value="Kod" style="ellipse;whiteSpace=wrap;html=1;aspect=fixed;fillColor=#d5e8d4;strokeColor=#82b366;" vertex="1" parent="1">
          <mxGeometry x="70" y="570" width="60" height="60" as="geometry" />
        </mxCell>
        <mxCell id="73ffAHBmO4M_iKyoBpWe-41" value="Miejscowość" style="ellipse;whiteSpace=wrap;html=1;aspect=fixed;fillColor=#d5e8d4;strokeColor=#82b366;" vertex="1" parent="1">
          <mxGeometry y="520" width="70" height="70" as="geometry" />
        </mxCell>
        <mxCell id="73ffAHBmO4M_iKyoBpWe-42" value="Ulica" style="ellipse;whiteSpace=wrap;html=1;aspect=fixed;fillColor=#d5e8d4;strokeColor=#82b366;" vertex="1" parent="1">
          <mxGeometry x="-20" y="430" width="60" height="60" as="geometry" />
        </mxCell>
        <mxCell id="73ffAHBmO4M_iKyoBpWe-43" value="Nazwa" style="ellipse;whiteSpace=wrap;html=1;aspect=fixed;fillColor=#d5e8d4;strokeColor=#82b366;" vertex="1" parent="1">
          <mxGeometry x="40" y="360" width="60" height="60" as="geometry" />
        </mxCell>
        <mxCell id="73ffAHBmO4M_iKyoBpWe-45" value="" style="endArrow=none;html=1;rounded=0;exitX=1;exitY=0.5;exitDx=0;exitDy=0;entryX=0;entryY=0.5;entryDx=0;entryDy=0;" edge="1" parent="1" source="73ffAHBmO4M_iKyoBpWe-42" target="73ffAHBmO4M_iKyoBpWe-5">
          <mxGeometry width="50" height="50" relative="1" as="geometry">
            <mxPoint x="400" y="330" as="sourcePoint" />
            <mxPoint x="450" y="280" as="targetPoint" />
          </mxGeometry>
        </mxCell>
        <mxCell id="73ffAHBmO4M_iKyoBpWe-46" value="" style="endArrow=none;html=1;rounded=0;exitX=1;exitY=1;exitDx=0;exitDy=0;" edge="1" parent="1" source="73ffAHBmO4M_iKyoBpWe-43" target="73ffAHBmO4M_iKyoBpWe-5">
          <mxGeometry width="50" height="50" relative="1" as="geometry">
            <mxPoint x="400" y="330" as="sourcePoint" />
            <mxPoint x="450" y="280" as="targetPoint" />
          </mxGeometry>
        </mxCell>
        <mxCell id="73ffAHBmO4M_iKyoBpWe-47" value="" style="endArrow=none;html=1;rounded=0;exitX=0.5;exitY=1;exitDx=0;exitDy=0;entryX=0.75;entryY=0;entryDx=0;entryDy=0;" edge="1" parent="1" source="73ffAHBmO4M_iKyoBpWe-39" target="73ffAHBmO4M_iKyoBpWe-5">
          <mxGeometry width="50" height="50" relative="1" as="geometry">
            <mxPoint x="400" y="330" as="sourcePoint" />
            <mxPoint x="450" y="280" as="targetPoint" />
          </mxGeometry>
        </mxCell>
        <mxCell id="73ffAHBmO4M_iKyoBpWe-48" value="" style="endArrow=none;html=1;rounded=0;exitX=0.964;exitY=0.291;exitDx=0;exitDy=0;exitPerimeter=0;entryX=0.25;entryY=1;entryDx=0;entryDy=0;" edge="1" parent="1" source="73ffAHBmO4M_iKyoBpWe-41" target="73ffAHBmO4M_iKyoBpWe-5">
          <mxGeometry width="50" height="50" relative="1" as="geometry">
            <mxPoint x="400" y="330" as="sourcePoint" />
            <mxPoint x="450" y="280" as="targetPoint" />
          </mxGeometry>
        </mxCell>
        <mxCell id="73ffAHBmO4M_iKyoBpWe-49" value="" style="endArrow=none;html=1;rounded=0;entryX=0.387;entryY=1.012;entryDx=0;entryDy=0;exitX=0.5;exitY=0;exitDx=0;exitDy=0;entryPerimeter=0;" edge="1" parent="1" source="73ffAHBmO4M_iKyoBpWe-3" target="73ffAHBmO4M_iKyoBpWe-28">
          <mxGeometry width="50" height="50" relative="1" as="geometry">
            <mxPoint x="470" y="295" as="sourcePoint" />
            <mxPoint x="520" y="245" as="targetPoint" />
          </mxGeometry>
        </mxCell>
        <mxCell id="73ffAHBmO4M_iKyoBpWe-50" value="" style="endArrow=none;html=1;rounded=0;exitX=0.5;exitY=0;exitDx=0;exitDy=0;entryX=0.75;entryY=1;entryDx=0;entryDy=0;" edge="1" parent="1" source="73ffAHBmO4M_iKyoBpWe-38" target="73ffAHBmO4M_iKyoBpWe-5">
          <mxGeometry width="50" height="50" relative="1" as="geometry">
            <mxPoint x="400" y="330" as="sourcePoint" />
            <mxPoint x="450" y="280" as="targetPoint" />
          </mxGeometry>
        </mxCell>
        <mxCell id="73ffAHBmO4M_iKyoBpWe-51" value="" style="endArrow=none;html=1;rounded=0;entryX=0.623;entryY=-0.002;entryDx=0;entryDy=0;entryPerimeter=0;exitX=0.5;exitY=1;exitDx=0;exitDy=0;" edge="1" parent="1" source="73ffAHBmO4M_iKyoBpWe-5" target="73ffAHBmO4M_iKyoBpWe-40">
          <mxGeometry width="50" height="50" relative="1" as="geometry">
            <mxPoint x="400" y="330" as="sourcePoint" />
            <mxPoint x="450" y="280" as="targetPoint" />
          </mxGeometry>
        </mxCell>
        <mxCell id="73ffAHBmO4M_iKyoBpWe-52" value="" style="endArrow=none;html=1;rounded=0;entryX=1;entryY=0;entryDx=0;entryDy=0;exitX=0;exitY=0.75;exitDx=0;exitDy=0;" edge="1" parent="1" source="73ffAHBmO4M_iKyoBpWe-2" target="73ffAHBmO4M_iKyoBpWe-10">
          <mxGeometry width="50" height="50" relative="1" as="geometry">
            <mxPoint x="420" y="590" as="sourcePoint" />
            <mxPoint x="280" y="715" as="targetPoint" />
          </mxGeometry>
        </mxCell>
        <mxCell id="73ffAHBmO4M_iKyoBpWe-53" value="" style="endArrow=none;html=1;rounded=0;entryX=0;entryY=0;entryDx=0;entryDy=0;exitX=1.013;exitY=0.386;exitDx=0;exitDy=0;exitPerimeter=0;" edge="1" parent="1" source="73ffAHBmO4M_iKyoBpWe-3" target="73ffAHBmO4M_iKyoBpWe-11">
          <mxGeometry width="50" height="50" relative="1" as="geometry">
            <mxPoint x="470" y="295" as="sourcePoint" />
            <mxPoint x="520" y="245" as="targetPoint" />
          </mxGeometry>
        </mxCell>
        <mxCell id="73ffAHBmO4M_iKyoBpWe-54" value="" style="endArrow=none;html=1;rounded=0;exitX=0;exitY=1;exitDx=0;exitDy=0;entryX=0.75;entryY=0;entryDx=0;entryDy=0;" edge="1" parent="1" source="73ffAHBmO4M_iKyoBpWe-27" target="73ffAHBmO4M_iKyoBpWe-3">
          <mxGeometry width="50" height="50" relative="1" as="geometry">
            <mxPoint x="470" y="295" as="sourcePoint" />
            <mxPoint x="520" y="245" as="targetPoint" />
          </mxGeometry>
        </mxCell>
        <mxCell id="73ffAHBmO4M_iKyoBpWe-55" value="" style="endArrow=none;html=1;rounded=0;exitX=1;exitY=1;exitDx=0;exitDy=0;entryX=0;entryY=0.25;entryDx=0;entryDy=0;" edge="1" parent="1" source="73ffAHBmO4M_iKyoBpWe-36" target="73ffAHBmO4M_iKyoBpWe-4">
          <mxGeometry width="50" height="50" relative="1" as="geometry">
            <mxPoint x="805" y="10" as="sourcePoint" />
            <mxPoint x="855" y="-40" as="targetPoint" />
          </mxGeometry>
        </mxCell>
        <mxCell id="73ffAHBmO4M_iKyoBpWe-56" value="" style="endArrow=none;html=1;rounded=0;exitX=0.621;exitY=0.986;exitDx=0;exitDy=0;exitPerimeter=0;entryX=0.5;entryY=0;entryDx=0;entryDy=0;" edge="1" parent="1" source="73ffAHBmO4M_iKyoBpWe-37" target="73ffAHBmO4M_iKyoBpWe-4">
          <mxGeometry width="50" height="50" relative="1" as="geometry">
            <mxPoint x="805" y="10" as="sourcePoint" />
            <mxPoint x="855" y="-40" as="targetPoint" />
          </mxGeometry>
        </mxCell>
        <mxCell id="73ffAHBmO4M_iKyoBpWe-57" value="" style="endArrow=none;html=1;rounded=0;exitX=0.75;exitY=1;exitDx=0;exitDy=0;" edge="1" parent="1" source="73ffAHBmO4M_iKyoBpWe-4" target="73ffAHBmO4M_iKyoBpWe-35">
          <mxGeometry width="50" height="50" relative="1" as="geometry">
            <mxPoint x="805" y="10" as="sourcePoint" />
            <mxPoint x="855" y="-40" as="targetPoint" />
          </mxGeometry>
        </mxCell>
        <mxCell id="73ffAHBmO4M_iKyoBpWe-58" value="" style="endArrow=none;html=1;rounded=0;entryX=0;entryY=0.5;entryDx=0;entryDy=0;exitX=1;exitY=0.75;exitDx=0;exitDy=0;" edge="1" parent="1" source="73ffAHBmO4M_iKyoBpWe-4" target="73ffAHBmO4M_iKyoBpWe-34">
          <mxGeometry width="50" height="50" relative="1" as="geometry">
            <mxPoint x="805" y="10" as="sourcePoint" />
            <mxPoint x="855" y="-40" as="targetPoint" />
          </mxGeometry>
        </mxCell>
        <mxCell id="73ffAHBmO4M_iKyoBpWe-59" value="" style="endArrow=none;html=1;rounded=0;entryX=0;entryY=1;entryDx=0;entryDy=0;exitX=1;exitY=0.25;exitDx=0;exitDy=0;" edge="1" parent="1" source="73ffAHBmO4M_iKyoBpWe-4" target="73ffAHBmO4M_iKyoBpWe-33">
          <mxGeometry width="50" height="50" relative="1" as="geometry">
            <mxPoint x="835" y="220" as="sourcePoint" />
            <mxPoint x="855" y="-40" as="targetPoint" />
          </mxGeometry>
        </mxCell>
        <mxCell id="73ffAHBmO4M_iKyoBpWe-60" value="" style="endArrow=none;html=1;rounded=0;entryX=0;entryY=0.5;entryDx=0;entryDy=0;exitX=1;exitY=0.25;exitDx=0;exitDy=0;" edge="1" parent="1" source="73ffAHBmO4M_iKyoBpWe-7" target="73ffAHBmO4M_iKyoBpWe-31">
          <mxGeometry width="50" height="50" relative="1" as="geometry">
            <mxPoint x="400" y="330" as="sourcePoint" />
            <mxPoint x="450" y="280" as="targetPoint" />
          </mxGeometry>
        </mxCell>
        <mxCell id="73ffAHBmO4M_iKyoBpWe-61" value="" style="endArrow=none;html=1;rounded=0;entryX=0;entryY=1;entryDx=0;entryDy=0;exitX=0.75;exitY=0;exitDx=0;exitDy=0;" edge="1" parent="1" source="73ffAHBmO4M_iKyoBpWe-7" target="73ffAHBmO4M_iKyoBpWe-30">
          <mxGeometry width="50" height="50" relative="1" as="geometry">
            <mxPoint x="400" y="330" as="sourcePoint" />
            <mxPoint x="450" y="280" as="targetPoint" />
          </mxGeometry>
        </mxCell>
        <mxCell id="73ffAHBmO4M_iKyoBpWe-62" value="" style="endArrow=none;html=1;rounded=0;entryX=0.5;entryY=1;entryDx=0;entryDy=0;exitX=0.25;exitY=0;exitDx=0;exitDy=0;" edge="1" parent="1" source="73ffAHBmO4M_iKyoBpWe-7" target="73ffAHBmO4M_iKyoBpWe-29">
          <mxGeometry width="50" height="50" relative="1" as="geometry">
            <mxPoint x="400" y="330" as="sourcePoint" />
            <mxPoint x="450" y="280" as="targetPoint" />
          </mxGeometry>
        </mxCell>
        <mxCell id="73ffAHBmO4M_iKyoBpWe-63" value="" style="endArrow=none;html=1;rounded=0;entryX=0.5;entryY=0;entryDx=0;entryDy=0;exitX=0.5;exitY=1;exitDx=0;exitDy=0;" edge="1" parent="1" source="73ffAHBmO4M_iKyoBpWe-2" target="73ffAHBmO4M_iKyoBpWe-32">
          <mxGeometry width="50" height="50" relative="1" as="geometry">
            <mxPoint x="230" y="765" as="sourcePoint" />
            <mxPoint x="280" y="715" as="targetPoint" />
          </mxGeometry>
        </mxCell>
        <mxCell id="73ffAHBmO4M_iKyoBpWe-64" value="" style="endArrow=none;html=1;rounded=0;exitX=-0.004;exitY=0.269;exitDx=0;exitDy=0;entryX=1;entryY=1;entryDx=0;entryDy=0;exitPerimeter=0;" edge="1" parent="1" source="73ffAHBmO4M_iKyoBpWe-9" target="73ffAHBmO4M_iKyoBpWe-2">
          <mxGeometry width="50" height="50" relative="1" as="geometry">
            <mxPoint x="230" y="765" as="sourcePoint" />
            <mxPoint x="560" y="665" as="targetPoint" />
          </mxGeometry>
        </mxCell>
        <mxCell id="73ffAHBmO4M_iKyoBpWe-66" value="" style="endArrow=ERmany;html=1;rounded=0;exitX=1;exitY=0.5;exitDx=0;exitDy=0;entryX=0;entryY=0.5;entryDx=0;entryDy=0;startArrow=ERone;startFill=0;endFill=0;" edge="1" parent="1" source="73ffAHBmO4M_iKyoBpWe-1" target="73ffAHBmO4M_iKyoBpWe-7">
          <mxGeometry width="50" height="50" relative="1" as="geometry">
            <mxPoint x="420" y="340" as="sourcePoint" />
            <mxPoint x="470" y="290" as="targetPoint" />
            <Array as="points">
              <mxPoint x="320" y="190" />
              <mxPoint x="320" y="240" />
            </Array>
          </mxGeometry>
        </mxCell>
        <mxCell id="73ffAHBmO4M_iKyoBpWe-67" value="" style="endArrow=ERmany;html=1;rounded=0;exitX=1;exitY=0.5;exitDx=0;exitDy=0;entryX=0.5;entryY=0;entryDx=0;entryDy=0;startArrow=baseDash;startFill=0;endFill=0;" edge="1" parent="1" source="73ffAHBmO4M_iKyoBpWe-5" target="73ffAHBmO4M_iKyoBpWe-2">
          <mxGeometry width="50" height="50" relative="1" as="geometry">
            <mxPoint x="420" y="470" as="sourcePoint" />
            <mxPoint x="470" y="460" as="targetPoint" />
            <Array as="points">
              <mxPoint x="465" y="460" />
            </Array>
          </mxGeometry>
        </mxCell>
        <mxCell id="73ffAHBmO4M_iKyoBpWe-68" value="" style="endArrow=ERmany;html=1;rounded=0;exitX=1;exitY=0.5;exitDx=0;exitDy=0;entryX=0.5;entryY=1;entryDx=0;entryDy=0;startArrow=ERone;startFill=0;endFill=0;" edge="1" parent="1" source="73ffAHBmO4M_iKyoBpWe-2" target="73ffAHBmO4M_iKyoBpWe-3">
          <mxGeometry width="50" height="50" relative="1" as="geometry">
            <mxPoint x="420" y="470" as="sourcePoint" />
            <mxPoint x="470" y="420" as="targetPoint" />
            <Array as="points">
              <mxPoint x="740" y="570" />
            </Array>
          </mxGeometry>
        </mxCell>
        <mxCell id="73ffAHBmO4M_iKyoBpWe-69" value="" style="endArrow=ERone;html=1;rounded=0;entryX=0.5;entryY=1;entryDx=0;entryDy=0;exitX=0;exitY=0.5;exitDx=0;exitDy=0;startArrow=ERmany;startFill=0;endFill=0;" edge="1" parent="1" source="73ffAHBmO4M_iKyoBpWe-3" target="73ffAHBmO4M_iKyoBpWe-4">
          <mxGeometry width="50" height="50" relative="1" as="geometry">
            <mxPoint x="420" y="470" as="sourcePoint" />
            <mxPoint x="470" y="420" as="targetPoint" />
            <Array as="points">
              <mxPoint x="630" y="495" />
              <mxPoint x="630" y="320" />
              <mxPoint x="805" y="320" />
            </Array>
          </mxGeometry>
        </mxCell>
        <mxCell id="73ffAHBmO4M_iKyoBpWe-70" value="" style="endArrow=ERmany;html=1;rounded=0;entryX=1;entryY=0.5;entryDx=0;entryDy=0;exitX=0.028;exitY=0.626;exitDx=0;exitDy=0;exitPerimeter=0;startArrow=ERone;startFill=0;endFill=0;" edge="1" parent="1" source="73ffAHBmO4M_iKyoBpWe-4" target="73ffAHBmO4M_iKyoBpWe-7">
          <mxGeometry width="50" height="50" relative="1" as="geometry">
            <mxPoint x="420" y="470" as="sourcePoint" />
            <mxPoint x="470" y="420" as="targetPoint" />
          </mxGeometry>
        </mxCell>
      </root>
    </mxGraphModel>
  </diagram>
</mxfile>
